<?xml version="1.0" encoding="iso-8859-1"?>
<!-- Generator: Adobe Illustrator 19.0.0, SVG Export Plug-In . SVG Version: 6.00 Build 0)  -->
<svg version="1.1" id="Capa_1" xmlns="http://www.w3.org/2000/svg" xmlns:xlink="http://www.w3.org/1999/xlink" x="0px" y="0px"
	 viewBox="0 0 511 511" style="enable-background:new 0 0 511 511;" xml:space="preserve">
<g>
	<path d="M39.5,103c1.97,0,3.91-0.8,5.3-2.2c1.4-1.39,2.2-3.33,2.2-5.3s-0.8-3.91-2.2-5.3c-1.39-1.4-3.33-2.2-5.3-2.2
		c-1.97,0-3.91,0.8-5.3,2.2c-1.4,1.39-2.2,3.33-2.2,5.3s0.8,3.91,2.2,5.3C35.59,102.2,37.53,103,39.5,103z"/>
	<path d="M63.5,103c1.97,0,3.91-0.8,5.3-2.2c1.4-1.39,2.2-3.33,2.2-5.3s-0.8-3.91-2.2-5.3c-1.39-1.4-3.33-2.2-5.3-2.2
		c-1.97,0-3.91,0.8-5.3,2.2c-1.4,1.39-2.2,3.33-2.2,5.3s0.8,3.91,2.2,5.3C59.59,102.2,61.53,103,63.5,103z"/>
	<path d="M87.5,103c1.97,0,3.91-0.8,5.3-2.2c1.4-1.39,2.2-3.33,2.2-5.3s-0.8-3.91-2.2-5.3c-1.39-1.4-3.33-2.2-5.3-2.2
		c-1.97,0-3.91,0.8-5.3,2.2c-1.4,1.39-2.2,3.33-2.2,5.3c0,1.98,0.8,3.91,2.2,5.3C83.59,102.2,85.53,103,87.5,103z"/>
	<path d="M119.5,103h304c4.142,0,7.5-3.358,7.5-7.5s-3.358-7.5-7.5-7.5h-304c-4.142,0-7.5,3.358-7.5,7.5S115.358,103,119.5,103z"/>
	<path d="M455.5,103h16c4.142,0,7.5-3.358,7.5-7.5s-3.358-7.5-7.5-7.5h-16c-4.142,0-7.5,3.358-7.5,7.5S451.358,103,455.5,103z"/>
	<path d="M215.5,272c-4.142,0-7.5,3.358-7.5,7.5v8c0,4.142,3.358,7.5,7.5,7.5s7.5-3.358,7.5-7.5v-8
		C223,275.358,219.642,272,215.5,272z"/>
	<path d="M295.5,272c-4.142,0-7.5,3.358-7.5,7.5v8c0,4.142,3.358,7.5,7.5,7.5s7.5-3.358,7.5-7.5v-8
		C303,275.358,299.642,272,295.5,272z"/>
	<path d="M471.5,56h-432C17.72,56,0,73.72,0,95.5v320C0,437.28,17.72,455,39.5,455h432c21.78,0,39.5-17.72,39.5-39.5v-320
		C511,73.72,493.28,56,471.5,56z M39.5,71h432c13.509,0,24.5,10.991,24.5,24.5V120H15V95.5C15,81.991,25.991,71,39.5,71z
		 M327.105,298.926c-4.985,6.475-13.457,9.511-21.592,7.735l-48.022-10.488c-0.027-0.006-0.054-0.008-0.081-0.013
		c-0.156-0.032-0.314-0.056-0.473-0.079c-0.092-0.013-0.184-0.029-0.276-0.038c-0.139-0.015-0.281-0.02-0.422-0.027
		c-0.114-0.005-0.227-0.013-0.34-0.013c-0.113,0-0.226,0.007-0.339,0.012c-0.141,0.006-0.283,0.012-0.423,0.026
		c-0.092,0.01-0.184,0.025-0.276,0.038c-0.158,0.022-0.316,0.045-0.471,0.077c-0.027,0.005-0.055,0.007-0.083,0.013l-48.847,10.555
		c-7.857,1.697-16.014-1.103-21.041-7.137c-0.927-4.801-1.419-9.759-1.419-14.828v-28.12l71.432,14.216
		c0.483,0.096,0.974,0.144,1.464,0.144c0.495,0,0.99-0.049,1.478-0.147L328,256.657V287.5c0,3.866-0.301,7.678-0.884,11.413
		C327.112,298.917,327.108,298.921,327.105,298.926z M328,241.357l-72.112,14.494L183,241.346V239.5c0-31.154,25.346-56.5,56.5-56.5
		h32c31.154,0,56.5,25.346,56.5,56.5V241.357z M200.898,322.211c2.569,0,5.161-0.27,7.729-0.825l47.254-10.211l46.431,10.14
		c2.595,0.567,5.212,0.842,7.808,0.842c3.339,0,6.64-0.465,9.815-1.344c-3.743,7.213-8.721,13.833-14.865,19.593
		c-14.775,13.849-34.093,20.751-54.411,19.436c-17.278-1.119-32.839-8.583-44.677-20.109c-0.608-1.049-1.476-1.958-2.568-2.625
		c-4.439-4.771-8.272-10.147-11.382-15.993C194.915,321.83,197.89,322.211,200.898,322.211z M200.848,355.263
		c13.538,11.208,30.381,18.353,48.842,19.548c1.972,0.128,3.934,0.191,5.888,0.191c20.161,0,39.257-6.777,54.848-19.409
		c6.208,7.677,14.631,13.261,24.264,15.971l33.876,9.531c14.024,4.744,23.435,16.95,23.435,30.422V440h-41v-16.5
		c0-4.142-3.358-7.5-7.5-7.5s-7.5,3.358-7.5,7.5V440H175v-16.5c0-4.142-3.358-7.5-7.5-7.5s-7.5,3.358-7.5,7.5V440h-41v-28.483
		c0-13.472,9.411-25.678,23.435-30.422l33.876-9.531C186.108,368.808,194.622,363.113,200.848,355.263z M471.5,440H407v-28.483
		c0-19.991-13.604-37.958-33.853-44.707c-0.112-0.038-0.226-0.073-0.34-0.105l-34.056-9.581
		c-7.028-1.977-13.123-6.178-17.449-11.966C335.177,329.291,343,308.715,343,287.5v-39.94c0-0.019,0-0.037,0-0.056V239.5
		c0-39.425-32.075-71.5-71.5-71.5h-32c-39.425,0-71.5,32.075-71.5,71.5v8.017c0,0.019,0,0.038,0,0.057v37.186
		c0,22.882,8.333,43.9,22.068,59.892c-4.341,6.051-10.569,10.433-17.82,12.473l-34.056,9.581c-0.114,0.032-0.228,0.067-0.34,0.105
		C117.604,373.56,104,391.526,104,411.517V440H39.5C25.991,440,15,429.009,15,415.5V135h481v280.5
		C496,429.009,485.009,440,471.5,440z"/>
</g>
<g>
</g>
<g>
</g>
<g>
</g>
<g>
</g>
<g>
</g>
<g>
</g>
<g>
</g>
<g>
</g>
<g>
</g>
<g>
</g>
<g>
</g>
<g>
</g>
<g>
</g>
<g>
</g>
<g>
</g>
</svg>
