<?xml version="1.0" encoding="iso-8859-1"?>
<!-- Generator: Adobe Illustrator 19.0.0, SVG Export Plug-In . SVG Version: 6.00 Build 0)  -->
<svg version="1.1" id="Capa_1" xmlns="http://www.w3.org/2000/svg" xmlns:xlink="http://www.w3.org/1999/xlink" x="0px" y="0px"
	 viewBox="0 0 512.8 512.8" style="enable-background:new 0 0 512.8 512.8;" xml:space="preserve">
<path style="fill:#FDC75B;" d="M418.6,190.35c6.6-51.2,31.8-70.6,82.9-64c-5.8,44.8-25.7,65.2-64.9,65.2
	C431,191.55,425,191.15,418.6,190.35z"/>
<path style="fill:#ED664C;" d="M425,256.35c0,11.4-0.9,22.6-2.7,33.5l-3.7-0.6l-14.6,3.3c-123,27.4-250.6,27.4-373.7,0l-14.6-3.3
	l-3.1,0.5c-1.8-10.9-2.7-22.1-2.7-33.4c0-22.7,3.7-44.7,10.4-65.1l20.9-5.8c117.6-26.6,239.6-26.3,357,0.9l16.3,4.9
	C421.3,211.65,425,233.55,425,256.35z M381.4,229.65l7.3-12.7l-126.4,33.9l12.7,7.3C312.2,279.65,359.8,266.85,381.4,229.65z
	 M159.9,258.15l12.7-7.3l-126.4-33.9l7.3,12.7C75,266.85,122.7,279.65,159.9,258.15z"/>
<g>
	<path style="fill:#FDC75B;" d="M418.6,289.25l3.7,0.6c-16,98.7-101.6,174-204.9,174s-188.9-75.4-204.9-174.1l3.1-0.5l14.6,3.3
		c123.1,27.4,250.7,27.4,373.7,0L418.6,289.25z"/>
	<path style="fill:#FDC75B;" d="M415.9,148.25c0,9.7-1.9,20.4-5.5,32.5c-44.3-13.4-61-37.4-53.1-77.8c0.1-0.2,0.1-0.4,0.1-0.5
		c0.9-4.5,2-9.1,3.5-14C398.2,99.75,415.9,118.45,415.9,148.25z"/>
	<path style="fill:#FDC75B;" d="M410.4,180.75l0.9,1.1c1.2,3.1,2.3,6.2,3.3,9.3l-16.3-4.8c-117.4-27.2-239.5-27.5-357-0.9l-21,5.8
		c27.4-82.8,105.3-142.5,197.2-142.5c53.4,0,102.2,20.2,139,53.4l0.9,0.2c-0.1,0.2-0.1,0.4-0.1,0.5
		C349.4,143.35,366.1,167.35,410.4,180.75z"/>
</g>
<path d="M275,258.15c37.2,21.5,84.8,8.7,106.4-28.5l7.3-12.7l-126.4,33.9L275,258.15z"/>
<path d="M53.5,229.65c21.5,37.3,69.2,50,106.4,28.5l12.7-7.3l-126.4-33.9L53.5,229.65z"/>
<path d="M437.2,128.75c-4.4,3.4-8.3,7.4-11.7,12.1c-2.8-30-23.1-50.3-61.8-62l-9.5-2.9l-2.8,9c-38.1-29.8-85.1-46.2-133.9-46.2
	c-46.7,0-91.2,14.6-128.7,42.2c-36.8,27-63.7,64.1-77.9,107.2c-7.3,22-10.9,45-10.9,68.3c0,11.6,1,23.4,2.8,35
	c8.2,50.4,34.1,96.6,73.1,130.1c39.4,33.8,89.7,52.5,141.7,52.5s102.3-18.6,141.6-52.4c38.9-33.4,64.9-79.6,73.1-130
	c1.9-11.6,2.8-23.4,2.8-35.1c0-18.7-2.4-37.1-7-55.1c3,0.2,5.9,0.3,8.7,0.3c22.5,0,39.5-6.1,52-18.8c12.1-12.2,19.5-30.3,22.7-55.2
	l1.3-9.9l-9.9-1.3C474.2,112.75,452.7,116.85,437.2,128.75z M367,105.05c0.1-0.2,0.1-0.4,0.1-0.6v-0.1c0.2-1,0.4-2,0.6-3
	c26.6,10,38.1,24.4,38.1,46.9c0,5.9-0.8,12.4-2.4,19.6C371.5,155.75,360.9,136.95,367,105.05z M100.6,97.05
	c34-25,74.4-38.2,116.8-38.2c47.5,0,93.2,17,129,48c-3,20.5,0.1,37.2,9.5,50.9c2.9,4.3,6.5,8.2,10.7,11.9
	c-48.4-9-97.6-13.7-146.8-13.8c-0.7,0-1.4,0-2.1,0c-60,0-120.1,6.7-178.7,19.9l-2.2,0.6C50.7,144.85,72.5,117.75,100.6,97.05z
	 M346.1,406.35c-35.8,30.7-81.4,47.6-128.6,47.6s-92.9-16.9-128.6-47.6c-31.9-27.4-54.2-64.2-63.7-104.7l2.9,0.7
	c62,13.8,125.6,20.8,189,20.8s127.1-7,189-20.8l3.7-0.8C400.3,342.05,378,378.85,346.1,406.35z M413.6,280.15l-11.8,2.6
	c-60.5,13.5-122.6,20.3-184.7,20.3s-124.2-6.8-184.7-20.3l-11.1-2.5c-1-8-1.5-16-1.5-23.9c0-19.4,2.8-38.5,8.3-56.9l15.4-4.3
	c57.7-13,117-19.5,176.1-19.4c59.1,0.2,118.3,7,175.9,20.3l10.9,3.3c5.6,18.5,8.4,37.6,8.4,57.1
	C415,264.25,414.5,272.25,413.6,280.15z M436.6,181.55c-2.1,0-4.2-0.1-6.5-0.2c6.9-34.6,24.6-48.2,59.8-46.1
	C483.4,168.05,467.5,181.55,436.6,181.55z"/>
<g>
</g>
<g>
</g>
<g>
</g>
<g>
</g>
<g>
</g>
<g>
</g>
<g>
</g>
<g>
</g>
<g>
</g>
<g>
</g>
<g>
</g>
<g>
</g>
<g>
</g>
<g>
</g>
<g>
</g>
</svg>
